<?xml version="1.0" encoding="utf-8"?>
<!-- Generator: Adobe Illustrator 25.2.0, SVG Export Plug-In . SVG Version: 6.00 Build 0)  -->
<svg version="1.1" id="Layer_1" xmlns="http://www.w3.org/2000/svg" xmlns:xlink="http://www.w3.org/1999/xlink" x="0px" y="0px"
	 viewBox="0 0 448.9 89.4" style="enable-background:new 0 0 448.9 89.4;" xml:space="preserve">
<style type="text/css">
	.st0{fill:none;}
	.st1{fill-rule:evenodd;clip-rule:evenodd;fill:#FFFFFF;}
</style>
<g>
	<path class="st0" d="M106.9,62.5c-0.4-0.1-0.8-0.2-1.2-0.2c-4.1-0.9-8.2-1.8-12.2-2.8c-0.2,0-0.4-0.2-0.6,0c0,0.1,0,0.2,0,0.3
		c1,4.6,2.1,9.2,3.1,13.8c0,0.1,0.1,0.2,0.2,0.3c0.4-0.3,0.8-0.7,1.1-1c0.4-0.3,0.7-0.8,1.2-1.1c0.4,0.4,0.8,0.8,1.2,1.2
		c2.2,2.2,4.4,4.3,6.9,6.3c6.4,5.1,13.7,8.1,21.8,8.9c2.5,0.3,5,0.3,7.4,0.1c2.5-0.2,4.9-0.6,7.3-1.2c7.3-1.8,13.6-5.3,19-10.4
		c5.4-5.2,9.1-11.4,11.2-18.6c0.8-2.9,1.4-5.9,1.5-8.9c0.2-4-0.2-7.9-1.1-11.8c-2.2-9.4-7.1-17.2-14.5-23.4
		c-7.4-6.1-16.1-9.1-25.6-9.5c-2.5-0.1-5,0.1-7.5,0.5c-4.3,0.6-8.4,1.9-12.3,3.8c-3.3,1.6-6.3,3.7-9.2,6c-3.7,2.9-7.2,6.2-10.6,9.5
		C90,28.2,86,32.1,82.1,36c-0.6,0.6-1.3,1.2-1.9,1.8c0,0-0.1,0-0.3,0.1c-0.1-0.2-0.3-0.4-0.5-0.6c-1.7-1.8-3.3-3.7-5-5.5
		c-2.9-3.1-5.9-6.2-9-9.1c-1.2-1.1-2.4-2.1-3.7-3c-4.8-3.3-10.2-5-16-5c-1.9,0-3.7,0.2-5.6,0.5c-6.1,1.2-11.5,4-15.8,8.5
		c-4.6,4.8-7.2,10.6-7.9,17.2c-0.2,2.7-0.2,5.5,0.3,8.2c0.6,3.6,1.9,6.9,3.8,10c4.5,7.2,12.5,12.8,21.9,13.7
		c2.4,0.2,4.8,0.2,7.2-0.1c4-0.6,7.8-1.9,11.2-4.1c1.5-0.9,3-2,4.4-3.1c3.1-2.3,5.9-5,8.7-7.7c2.5-2.5,5-5,7.5-7.5
		c1.4-1.4,2.8-2.8,4.3-4.2c0.4-0.4,0.8-0.8,1.2-1.2c1.2-1.1,2.3-2.2,3.5-3.4c2.7-2.7,5.5-5.4,8.2-8.1c2.2-2.3,4.5-4.5,6.8-6.6
		c2.9-2.6,5.9-5.2,9.2-7.4c5.1-3.5,10.7-5.2,16.8-5.5c3.1-0.2,6.2,0.1,9.2,0.9c6.4,1.6,11.9,4.7,16.3,9.6c4.7,5.2,7.5,11.3,8.3,18.2
		c0.4,3.5,0.3,7-0.5,10.4c-1.8,8.3-6.2,15-13.1,19.9c-5.4,3.8-11.4,5.8-18,5.9c-2.5,0.1-4.9-0.2-7.3-0.7c-4.8-1-9.1-2.9-13-5.9
		c-2.8-2.2-5.3-4.6-7.8-7.1c-0.1-0.1-0.1-0.2-0.1-0.2c0.6-0.7,1.3-1.3,1.9-2c0.2,0.2,0.5,0.4,0.8,0.6c1.8,1.8,3.6,3.5,5.6,5.1
		c4.8,4,10.4,6.3,16.6,6.8c2.8,0.2,5.6,0,8.4-0.6c11.5-2.5,21.6-12.3,22.7-25.6c0.3-3,0.2-5.9-0.5-8.8c-2-8.8-6.9-15.4-14.8-19.7
		c-3.5-1.9-7.3-3-11.3-3.4c-2.5-0.2-5-0.1-7.5,0.3c-4.3,0.8-8.2,2.4-11.8,4.9c-2.4,1.7-4.6,3.6-6.9,5.5c-0.1,0.1-0.3,0.2-0.4,0.4
		c-1.1,1.3-2.4,2.3-3.8,3.2c-0.1,0.1-0.2,0.1-0.3,0.2c-0.2,0.6-0.8,1-1.2,1.4c-0.2,0.2-0.5,0.4-0.6,0.7c-0.1,0.2-0.2,0.3-0.4,0.5
		c-2.1,2.1-4.1,4.1-6.2,6.2c-1.5,1.5-3,2.9-4.5,4.4c-3.8,3.7-7.4,7.5-11.3,11.2c-1.8,1.7-3.4,3.5-5.2,5.1c-0.9,0.8-1.7,1.6-2.5,2.4
		c-1,1-2,2-3.1,2.9c-1.7,1.4-3.5,2.8-5.4,4.1c-4.8,3.3-10.1,5.1-15.8,5.5c-2.9,0.2-5.7,0.1-8.5-0.5c-6.6-1.2-12.3-4.2-17-8.9
		c-6-6-9.1-13.3-9.6-21.8c-0.1-2.9,0.1-5.7,0.8-8.5c1.8-7.7,5.9-14,12.3-18.8c4.8-3.6,10.3-5.8,16.3-6.3c3.2-0.3,6.3-0.1,9.5,0.5
		c4.6,0.9,8.9,2.7,12.7,5.5c2.9,2.1,5.5,4.5,7.9,7.1c0.2,0.1,0.3,0.3,0.4,0.5c-0.3,0.6-1,0.9-1.3,1.4c0.1,0.1,0.1,0.1,0.2,0.1
		c4.6,1.4,9.1,2.8,13.7,4.1c0.1,0,0.2,0,0.3,0c0-0.2,0-0.3,0-0.5c-0.3-1.9-0.6-3.8-0.8-5.6c-0.4-2.7-0.8-5.5-1.2-8.2
		c0-0.1-0.1-0.2-0.2-0.4c-1,0.9-2,1.9-3,2.8c-0.4-0.2-0.7-0.6-1-0.9c-0.7-0.9-1.5-1.6-2.3-2.4s-1.6-1.5-2.4-2.3
		c-2.5-2.3-5.3-4.4-8.3-6c-5-2.8-10.5-4.5-16.2-5.1c-2.4-0.2-4.8-0.3-7.3-0.1c-3.3,0.2-6.5,0.8-9.7,1.8c-6,1.8-11.3,4.9-15.9,9.1
		C8.5,20.6,4.1,30.2,3.3,41.4C3,45.9,3.4,50.2,4.5,54.5c2.2,8.4,6.6,15.6,13.2,21.3c7.8,6.8,17,10,27.3,10.1c3,0.1,6-0.3,8.9-0.9
		c6.9-1.4,12.9-4.5,18.4-8.8c1.8-1.4,3.6-2.8,5.2-4.4c1.4-1.3,2.8-2.6,4.2-3.9c0.8-0.8,1.6-1.6,2.4-2.4c1-0.9,2-1.9,3-2.9
		c2.6-2.6,5.2-5.3,7.9-7.9c0.8-0.8,1.7-1.7,2.6-2.5c0.4,0.5,0.9,1,1.3,1.6c1.3,1.6,2.8,3.2,4.3,4.7
		C104.6,59.7,105.7,61.1,106.9,62.5z M411.6,20.6c0.4,0,0.8,0,1.2,0c8.3,0,16.5,0,24.8,0c0.3,0,0.6,0,0.9,0c1.5,0.1,2.3,1,2.4,2.4
		c0,2.2,0,4.4,0,6.6c0,0.2-0.1,0.4-0.1,0.7c-0.5,0-0.9,0-1.4,0c-8.7,0-17.5,0-26.2,0c-0.3,0-0.6,0-0.9,0c-0.2,0-0.4,0.1-0.6,0.1
		c0,0.2-0.1,0.3-0.1,0.5c0,3.9,0,7.8,0,11.7c0,0.5,0.1,1.1,0.2,1.7c0.5,2.4,3.2,5.2,6.6,5.2c8.9,0,17.7,0,26.5,0
		c0.2,0,0.4,0,0.7-0.1c0-0.4,0-0.8,0-1.1c0-2.1,0-4.2,0-6.4c0-6.2,0-12.3,0-18.5c0-0.8-0.1-1.6-0.3-2.4c-0.9-3-3.6-5-6.9-5
		c-8.7,0-17.3,0-26,0c-0.3,0-0.6,0-0.9,0C411.4,16.8,411.4,19.5,411.6,20.6z M382.3,44.7c-0.5,0-0.9,0-1.4,0c-8.3,0-16.6,0-24.9,0
		c-0.4,0-0.8,0-1.1,0c-0.9-0.1-1.7-0.7-1.9-1.6c-0.1-0.3-0.1-0.7-0.1-1c0-2.1,0-4.2,0-6.3c0-0.2,0.1-0.4,0.1-0.7c0.5,0,0.9,0,1.3,0
		c5.8,0,11.7,0,17.5,0c3.2,0,6.3,0,9.5,0c0.3,0,0.7,0.1,1-0.2c0-0.1,0-0.3,0-0.4c0-4,0-8,0-11.9c0-3.1-2.5-5.7-5-6.4
		c-0.8-0.2-1.5-0.3-2.3-0.3c-6.5,0-12.9,0-19.4,0c-0.2,0-0.5,0-0.7,0c-2.9,0.1-5.6,2.2-6.4,5c-0.2,0.8-0.3,1.5-0.3,2.3
		c0,4.5,0,8.9,0,13.4c0,2,0,4,0,6c0.1,3.2,2.4,6,5.6,6.7c0.6,0.1,1.2,0.1,1.8,0.1c5,0,10.1,0,15.2,0c3.5,0,7,0,10.5,0
		c0.4,0,0.7,0.1,1.1-0.1C382.4,47.8,382.4,46.3,382.3,44.7z M244.2,49.4L244.2,49.4c3.5,0,6.9,0,10.4,0c3.4,0,5.8-2.6,6.5-4.8
		c0.2-0.8,0.4-1.7,0.4-2.5c0-5,0-9.9,0-14.8c0-1.5,0-3,0-4.5c0-1.9-0.7-3.5-2.1-4.9c-1.3-1.3-2.9-2-4.8-2s-3.7,0-5.6,0
		c-4.9,0-9.9,0-14.8,0c-3.4,0-6.2,2.6-6.7,5.6c-0.1,0.6-0.1,1.2-0.1,1.8c0,6.2,0,12.5,0,18.7c0,0.2,0,0.5,0,0.8
		c0,1.4,0.5,2.7,1.4,3.8c1.4,1.8,3.2,2.8,5.6,2.8C237.5,49.4,240.8,49.4,244.2,49.4z M192.2,49.3c0.2-0.4,0.1-0.8,0.1-1.2
		c0-8.1,0-16.1,0-24.2c0-0.4,0-0.8,0-1.1c0.1-1,0.7-1.8,1.6-2c0.4-0.1,0.7-0.1,1.1-0.1c6.4,0,12.8,0,19.2,0c0.3,0,0.6,0,0.9,0.1
		c1.1,0.2,1.7,1,1.8,2.1c0,0.3,0,0.6,0,0.9c0,3.9,0,7.9,0,11.8c0,4.2,0,8.4,0,12.6c0,0.4-0.1,0.8,0.1,1.2c1.2,0.2,3.8,0.1,4.6-0.1
		c0-0.4,0-0.8,0-1.2c0-3.6,0-7.2,0-10.8c0-4.6,0-9.2,0-13.7c0-0.8,0-1.6-0.2-2.4c-0.8-3.1-3.6-5.2-6.8-5.2c-8.7,0-17.4,0-26.1,0
		c-0.3,0-0.6,0-0.9,0.1c0,0.2-0.1,0.2-0.1,0.4c0,10.9,0,21.8,0,32.7c0,0.1,0.1,0.2,0.1,0.3C188.6,49.4,191.3,49.4,192.2,49.3z
		 M269.9,15.9c-0.9,0-1.6,0-2.4,0c-0.8,0-1.5-0.1-2.4,0.1c0,0.4,0,0.8,0,1.1c0,8.2,0,16.4,0,24.6c0,0.2,0,0.5,0,0.8
		c0.1,1.8,0.7,3.3,1.9,4.6c1.4,1.5,3.1,2.2,5.1,2.2c2.6,0,5.1,0,7.7,0c4.2,0,8.4,0,12.6,0c3.3,0,6.2-2.6,6.7-5.5
		c0.1-0.6,0.1-1.2,0.1-1.9c0-5.1,0-10.3,0-15.4c0-3.2,0-6.5,0-9.7c0-0.3,0.1-0.7-0.2-1c-0.7,0-1.4,0-2.2,0c-0.8,0-1.5-0.1-2.4,0.1
		c0,0.4,0,0.9,0,1.2c0,8,0,16,0,24c0,0.3,0,0.7,0,1c0,1.5-0.9,2.4-2.4,2.4c-6.7,0-13.3,0-20,0c-1.3,0-2.2-0.9-2.3-2.2
		c0-0.3,0-0.7,0-1c0-8.1,0-16.1,0-24.2C269.9,16.9,269.9,16.4,269.9,15.9z M324.4,44.7c-0.2-0.3-0.4-0.6-0.5-0.8
		c-1-1.8-2-3.6-2.9-5.4c-3.9-7.2-7.8-14.4-11.7-21.5c-0.2-0.4-0.4-0.7-0.6-1c-1.7,0-3.3,0-5,0c-0.1,0-0.2,0-0.5,0.1
		c1.2,2.3,2.4,4.4,3.6,6.6c1.2,2.2,2.5,4.5,3.7,6.7c1.2,2.2,2.4,4.4,3.7,6.6c1.2,2.2,2.5,4.5,3.7,6.7c1.2,2.2,2.4,4.4,3.6,6.6
		c1.9,0,3.7,0,5.5,0c0.2-0.3,0.4-0.7,0.6-1c4.4-8,8.9-16,13.3-24c1.4-2.5,2.8-5.1,4.2-7.6c0.1-0.2,0.4-0.5,0.2-0.8
		c-1.3-0.1-4.5-0.1-5.4,0.1c-1.7,3.2-3.5,6.4-5.2,9.6c-1.7,3.2-3.4,6.3-5.2,9.5C327.9,38.2,326.2,41.4,324.4,44.7z M392.8,20.6
		c0.6,0,1,0,1.4,0c4,0,8,0,12,0c0.4,0,0.8,0.1,1.1-0.2c0-1.5,0.1-2.9,0-4.5c-0.5,0-0.9,0-1.3,0c-4,0-8,0-12,0
		c-0.4,0-0.8,0.1-1.1-0.2c0-0.3,0-0.7,0-1.1c0-2.9,0-5.9,0-8.8c0-0.3,0.1-0.6-0.2-0.9c-0.7,0-1.4,0-2.2,0c-0.8,0-1.5-0.1-2.3,0.1
		c0,0.4,0,0.8,0,1.2c0,11.7,0,23.5,0,35.2c0,0.5,0,1,0,1.5c0,0.4,0.1,0.8,0.2,1.2c0.6,2.6,3.2,5.2,6.6,5.2c3.9,0,7.8,0,11.7,0
		c0.2,0,0.4,0,0.6-0.1c0.2-1,0.2-3.7,0-4.6c-0.3,0-0.7,0-1.1,0c-3.5,0-6.9,0-10.4,0c-0.3,0-0.6,0-0.9,0c-1.1-0.1-1.9-1-2-2
		c0-0.3,0-0.6,0-0.9c0-6.6,0-13.2,0-19.9C392.8,21.5,392.8,21.1,392.8,20.6z M341,82c0-0.4,0-0.8,0-1.1c0-1.2,0-2.4,0-3.6
		c0-0.6,0.1-1.3,0.3-1.9c0.2-0.8,0.8-1.2,1.6-1.3c0.3,0,0.6,0,0.9,0c0.7,0.1,1.2,0.4,1.3,1.1c0.1,0.4,0.1,0.9,0.1,1.3
		c0,1.5,0,3,0,4.6c0,0.2,0,0.5,0.1,0.8c0.2,0,0.4,0,0.6,0c0.2,0,0.4,0,0.7-0.1c0-0.3,0-0.6,0-0.9c0-1.3,0-2.7,0-4
		c0-0.5,0.1-1,0.2-1.5c0.2-0.8,0.8-1.2,1.6-1.3c0.3,0,0.6,0,0.9,0c0.7,0,1.1,0.4,1.3,1c0.1,0.4,0.2,0.8,0.2,1.2c0,1.5,0,3,0,4.6
		c0,0.3,0,0.7,0.1,1c0.5,0.1,0.8,0.1,1.2,0c0-0.2,0.1-0.3,0.1-0.4c0-1.9,0-3.8,0-5.7c0-0.3,0-0.7-0.1-1c-0.2-0.8-0.7-1.5-1.6-1.7
		c-1.4-0.4-2.7-0.3-3.8,0.8c-0.1,0.1-0.3,0.2-0.4,0.4c-0.9-1.4-2.2-1.6-3.6-1.3c-0.6,0.1-1.1,0.5-1.5,0.9c-0.1,0.1-0.2,0.1-0.3,0.1
		c-0.1-0.3-0.2-0.6-0.4-1c-0.3,0-0.6,0-0.9,0c0,0.2-0.1,0.3-0.1,0.5c0,2.7,0,5.3,0,8c0,0.1,0.1,0.2,0.1,0.3
		C340.1,82,340.5,82,341,82z M367.6,81.9c0.3,0,0.5,0,0.7,0c0.4-0.2,0.2-0.7,0.6-0.9c0.1,0.1,0.2,0.2,0.3,0.3c2.2,1.8,5.2,0.8,5.9-2
		c0.3-1.2,0.3-2.4,0-3.6c-0.1-0.4-0.3-0.8-0.5-1.2c-0.4-0.7-0.9-1.2-1.7-1.4c-1.2-0.3-2.4-0.3-3.4,0.4c-0.2,0.1-0.3,0.4-0.6,0.2
		c0-0.2,0-0.4,0-0.6c0-1.1,0-2.2,0-3.2c0-0.2-0.1-0.4-0.1-0.6c-0.2,0-0.4,0-0.6,0c-0.2,0-0.4,0.1-0.5,0.1
		C367.4,70.4,367.4,81,367.6,81.9z M307.9,77.8c0.1-0.9,0.1-1.7-0.2-2.4c-0.4-1.1-1.1-1.9-2.2-2.3c-1.9-0.5-3.9,0.2-4.7,2.3
		c-0.5,1.3-0.5,2.7-0.1,4.1c0.5,1.4,1.4,2.3,2.9,2.6c1.3,0.2,2.6,0.2,3.9-0.4c0.1-0.4,0.2-0.8,0-1.2c-0.3,0.1-0.6,0.2-0.9,0.2
		c-0.8,0.2-1.5,0.3-2.3,0.2c-1.6-0.2-2.4-1.3-2.3-3C303.9,77.8,305.8,77.9,307.9,77.8z M396.6,77.8c0.2-1,0-1.9-0.4-2.9
		c-0.4-0.9-1.1-1.5-2-1.8c-1.9-0.6-3.9,0.1-4.7,2.2c-0.5,1.4-0.6,2.8-0.1,4.3c0.4,1.1,1.1,1.9,2.2,2.3c1.5,0.5,3.1,0.4,4.5-0.3
		c0.1-0.4,0.2-0.8-0.1-1.2c-0.3,0.1-0.6,0.2-0.9,0.2c-0.9,0.2-1.8,0.3-2.6,0.1c-1.3-0.3-2.1-1.5-1.9-3c0.9-0.1,1.9,0,2.9,0
		C394.6,77.8,395.6,78,396.6,77.8z M260.7,77.8c0-0.5,0-0.8,0-1.1c0-0.4,0-0.8-0.1-1.1c-0.3-1.2-1-2.1-2.2-2.5
		c-2.1-0.7-4.1,0.2-4.8,2.3c-0.4,1.2-0.5,2.5-0.1,3.7c0.3,1.2,1.1,2.2,2.3,2.7c1.6,0.6,3.1,0.4,4.6-0.2c0.1-0.7,0.1-0.7-0.1-1.1
		c-0.3,0.1-0.5,0.2-0.8,0.2c-0.8,0.2-1.5,0.3-2.3,0.2c-1.6-0.2-2.4-1.3-2.3-3c0.9-0.2,1.9-0.1,2.9-0.1
		C258.5,77.8,259.5,77.8,260.7,77.8z M201.8,81.9c0-0.2,0.1-0.2,0.1-0.4c0-1.8,0-3.7,0-5.6c0-0.4-0.1-0.8-0.2-1.2
		c-0.2-0.8-0.7-1.3-1.4-1.6c-1.4-0.5-2.8-0.4-4,0.6c-0.1,0.1-0.3,0.2-0.5,0.4c-0.1-0.3-0.1-0.6-0.2-0.8c0-0.1-0.1-0.2-0.2-0.3
		c-0.2,0-0.4,0-0.6,0c-0.1,0-0.2,0.1-0.4,0.1c-0.1,0.7,0,1.5,0,2.2c0,0.7,0,1.4,0,2.1c0,0.8,0,1.5,0,2.2s-0.1,1.5,0.1,2.2
		c0.4,0.1,0.8,0.2,1.2-0.1c0-0.3,0-0.7,0-1c0-1.1,0-2.2,0-3.2c0-0.4,0-0.9,0.1-1.3c0.2-1.5,1-2.2,2.6-2.2c0.2,0,0.4,0,0.6,0
		c0.8,0.1,1.3,0.6,1.4,1.3c0.1,0.4,0.1,0.8,0.1,1.2c0,1.4,0,2.8,0,4.2c0,0.3,0,0.6,0.1,1c0.3,0,0.6,0,0.8,0
		C201.5,82,201.7,81.9,201.8,81.9z M224.4,77.6C224.4,77.6,224.3,77.6,224.4,77.6c-0.1-0.4-0.1-0.8-0.1-1.1c-0.3-2-1.6-3.4-3.7-3.5
		c-2.4-0.2-3.9,1.2-4.3,3.3c-0.2,0.8-0.2,1.6,0,2.4c0.3,2.2,1.9,3.7,4.3,3.6c1.7-0.1,3-1,3.5-2.7C224.2,78.9,224.2,78.2,224.4,77.6z
		 M237.5,73.6c-0.1,0.4,0.1,0.7,0.4,1c0.3-0.1,0.6-0.2,0.9-0.3c0.4-0.1,0.9-0.2,1.3-0.2c1.4-0.1,2,0.5,2.1,1.9c0,0.2,0,0.5-0.1,0.8
		c-0.3,0-0.5,0-0.7,0c-0.6,0-1.2,0-1.8,0c-0.7,0-1.3,0.2-1.9,0.5c-1,0.5-1.4,1.4-1.3,2.6c0.1,1.1,0.7,1.8,1.7,2.1
		c0.9,0.3,1.9,0.2,2.7-0.1c0.4-0.2,0.8-0.6,1.2-0.8c0,0,0.1,0,0.3,0c0.1,0.3,0.2,0.6,0.3,0.9c0.3,0,0.6,0,0.9-0.1
		c0-0.2,0.1-0.4,0.1-0.5c0-1.9,0-3.8,0-5.7c0-0.3,0-0.7-0.1-1c-0.2-0.8-0.7-1.4-1.5-1.6C240.3,72.7,238.8,72.9,237.5,73.6z
		 M355.8,77.4c0,0.6,0.1,1,0.1,1.4c0,0.2,0.1,0.5,0.2,0.8c0.7,1.8,2.2,2.8,4.3,2.6c1.8-0.2,3.1-1.4,3.5-3.2c0.2-0.9,0.2-1.8,0-2.8
		c-0.4-1.9-1.6-3.1-3.6-3.3c-2.1-0.2-3.8,0.9-4.3,2.9C355.9,76.4,355.9,77,355.8,77.4z M281.8,82c0-0.4,0-0.7,0-1c0-1.2,0-2.4,0-3.6
		c0-0.5,0.1-1,0.2-1.6c0.2-1.1,0.9-1.7,2-1.7c0.3,0,0.7,0,1,0c0.8,0.1,1.3,0.6,1.5,1.3c0.1,0.3,0.1,0.7,0.1,1c0,1.5,0,3,0,4.5
		c0,0.3,0,0.7,0,1c0.5,0.1,0.9,0.2,1.3,0c0-0.2,0.1-0.3,0.1-0.4c0-1.8,0-3.6,0-5.3c0-0.4,0-0.8-0.1-1.1c-0.2-0.8-0.6-1.5-1.4-1.7
		c-1.5-0.5-2.8-0.5-4.1,0.5c-0.1,0.1-0.3,0.2-0.5,0.4c-0.1-0.4-0.2-0.7-0.3-1c-0.4-0.1-0.7-0.1-1,0.1c0,2.7,0,5.4,0,8.1
		c0,0.2,0,0.4,0.1,0.6C281,82,281.3,82,281.8,82z M205.6,73.1c-0.1,0.8,0,1.5,0,2.2c0,0.7,0,1.4,0,2.1c0,0.8,0,1.5,0,2.2
		c0,0.7-0.1,1.5,0.1,2.2c0.7,0.1,0.7,0.1,1.3-0.1c0-0.3,0-0.6,0-1c0-1.1,0-2.2,0-3.3c0-0.5,0.1-1,0.2-1.6c0.2-1.2,0.9-1.8,2.2-1.8
		c0.2,0,0.5,0,0.8,0c0.9,0.1,1.4,0.6,1.5,1.5c0,0.3,0,0.7,0,1c0,1.5,0,3,0,4.6c0,0.2,0.1,0.5,0.1,0.8c0.4,0,0.9,0.1,1.2-0.1
		c0-0.1,0.1-0.2,0.1-0.4c0-1.8,0-3.6,0-5.3c0-0.4,0-0.8-0.1-1.1c-0.2-1.1-0.9-1.8-2-2c-1.4-0.3-2.7-0.2-3.7,0.9
		c-0.1,0.1-0.2,0.1-0.3,0.1c-0.1-0.3-0.2-0.6-0.4-1C206.2,73.1,205.9,73.1,205.6,73.1z M318.4,82c0-0.3,0.1-0.4,0.1-0.6
		c0-1.8,0-3.6,0-5.3c0-0.4-0.1-0.8-0.1-1.2c-0.2-0.8-0.6-1.3-1.4-1.6c-1.4-0.5-2.7-0.5-3.9,0.4c-0.2,0.1-0.3,0.2-0.6,0.4
		c-0.1-0.4-0.2-0.7-0.4-1c-0.3,0-0.6,0-0.9,0c0,0.2-0.1,0.2-0.1,0.4c0,2.7,0,5.4,0,8.1c0,0.1,0.1,0.2,0.1,0.3
		c0.4,0.1,0.8,0.1,1.2-0.1c0-0.4,0-0.7,0-1c0-1.2,0-2.4,0-3.7c0-0.6,0.1-1.1,0.2-1.6c0.2-0.7,0.8-1.2,1.5-1.3c0.5-0.1,1-0.1,1.5,0
		c0.6,0.1,1,0.4,1.2,1c0.1,0.4,0.2,0.8,0.2,1.2c0,1.6,0,3.2,0,4.8c0,0.2,0,0.5,0.1,0.8C317.6,82,317.9,82,318.4,82z M231.2,82
		c0.1-0.2,0.1-0.2,0.2-0.3c1-2.7,2-5.3,3-8c0.1-0.2,0-0.3,0.1-0.6c-0.5,0-0.9,0-1.3,0c-0.3,0.8-0.6,1.6-0.9,2.4
		c-0.3,0.8-0.6,1.7-0.9,2.5c-0.3,0.8-0.5,1.6-1,2.4c-0.5-1.3-0.9-2.6-1.3-3.8s-0.8-2.5-1.4-3.6c-0.5,0-0.9,0-1.3,0
		c0.2,1.1,0.7,2,1,3c0.4,1,0.8,2,1.1,3c0.4,0.9,0.7,1.9,1.2,2.9C230.2,82,230.7,82,231.2,82z M290.3,73.1c0,0.8,0.5,1.5,0.7,2.2
		c0.2,0.8,0.5,1.5,0.8,2.2c0.3,0.8,0.6,1.5,0.9,2.3c0.3,0.7,0.5,1.5,0.9,2.2c0.5-0.1,1,0.1,1.5-0.1c0.1-0.1,0.1-0.2,0.1-0.2
		c1-2.7,2.1-5.4,3.1-8.1c0-0.1,0-0.3,0-0.4c-0.5,0-0.9,0-1.3,0c-0.2,0.4-0.3,0.8-0.5,1.2c-0.7,1.8-1.3,3.7-2,5.6
		c-0.1,0.2-0.1,0.4-0.4,0.3c-0.9-2.3-1.7-4.7-2.6-7.1c-0.3,0-0.6,0-0.9,0C290.6,73.1,290.5,73.1,290.3,73.1z M322.1,74.2
		c0,0.3,0.1,0.6,0.1,0.9c0,1.3,0,2.7,0,4c0,0.3,0,0.7,0,1c0.1,0.7,0.4,1.3,1,1.7c0.4,0.3,0.9,0.4,1.4,0.4c0.5,0,1.1,0.1,1.6-0.4
		c0-0.3,0-0.6-0.1-0.8c-0.4,0-0.7,0.1-1.1,0.1c-0.8,0-1.3-0.4-1.5-1.2c0-0.2,0-0.4,0-0.6c0-1.5,0-3,0-4.5c0-0.2,0.1-0.4,0.1-0.6
		c0.8,0,1.6,0,2.4-0.1c0.2-0.4,0.2-0.7-0.1-1.1c-0.5,0-1.1,0-1.7,0c-0.2,0-0.4-0.1-0.7-0.1c0-0.3,0-0.6,0-0.9c0-0.3,0-0.6-0.1-0.9
		c-0.1,0-0.2-0.1-0.4-0.1c-0.1,0-0.3,0.1-0.4,0.1c-0.2,0.6-0.4,1.2-0.6,1.8c-0.4,0.2-0.7,0.3-1,0.5c-0.3,0.2-0.3,0.4-0.1,0.7
		C321.4,74.1,321.7,74.2,322.1,74.2z M251.1,82c0.2-0.3,0.2-0.6,0.1-0.9c-0.4,0-0.8,0-1.2,0c-0.6,0-1-0.4-1.2-1
		c-0.1-0.3-0.1-0.7-0.1-1c0-1.4,0-2.8,0-4.2c0-0.2,0.1-0.4,0.1-0.6c0.8-0.2,1.6,0,2.4-0.2c0-0.3,0-0.5,0-0.8c0-0.1-0.1-0.1-0.2-0.2
		c-0.5,0-1.1,0-1.7,0c-0.2,0-0.4-0.1-0.6-0.1c0-0.7,0-1.2-0.1-1.8c-0.7-0.1-0.8-0.1-0.9,0.3c-0.2,0.5-0.3,1-0.5,1.5
		c-0.4,0.2-0.7,0.3-1,0.5c-0.3,0.2-0.3,0.4-0.1,0.7c0.3,0,0.7,0.1,1.1,0.1c0,0.4,0,0.7,0,1c0,1.3,0,2.7,0,4c0,0.4,0.1,0.8,0.1,1.2
		c0.2,1,0.9,1.5,1.9,1.7C249.9,82.2,250.5,82.3,251.1,82z M384.1,69.4c0,0.2-0.1,0.4-0.1,0.5c0,3.9,0,7.7,0,11.6
		c0,0.2,0.1,0.3,0.1,0.5c0.5,0.1,0.8,0.2,1.2,0c0-0.1,0.1-0.2,0.1-0.4c0-3.9,0-7.8,0-11.7c0-0.2-0.1-0.3-0.1-0.5
		C384.9,69.4,384.5,69.4,384.1,69.4z M378.6,73.1c-0.1,0.2-0.1,0.3-0.1,0.4c0,2.7,0,5.5,0,8.2c0,0,0,0.1,0,0.1c0,0,0,0.1,0.1,0.1
		c0.4,0.1,0.8,0.2,1.2-0.1c0-0.1,0-0.2,0-0.2c0-2.7,0-5.3,0-8c0-0.2-0.1-0.3-0.1-0.5C379.4,73.1,379,73.1,378.6,73.1z M189,73.1
		c-0.2,1-0.2,7.9,0,8.9c0.4,0,0.8,0.2,1.2-0.1c0-0.1,0.1-0.2,0.1-0.3c0-2.6,0-5.3,0-7.9c0-0.2-0.1-0.3-0.1-0.6
		C189.8,73.1,189.4,73.1,189,73.1z M275,81.9c0.7,0.1,0.7,0.1,1.2-0.1c0.1-1.5,0.1-7.8-0.1-8.7c-0.4-0.1-0.8-0.1-1.1,0
		C274.9,74.1,274.9,80.8,275,81.9z M329.3,82.2c0.6,0,1-0.4,1-1.1c0-0.7-0.4-1.1-1-1.1c-0.6,0-1,0.4-1,1.1
		C328.4,81.8,328.7,82.2,329.3,82.2z M265.5,81.1c0-0.7-0.4-1.1-0.9-1.1c-0.6,0-1,0.5-1,1.2c0,0.1,0,0.2,0,0.3
		c0.1,0.4,0.4,0.7,0.9,0.7C265.2,82.3,265.5,81.9,265.5,81.1z M275.6,69.8c-0.5,0-0.8,0.3-0.8,0.8s0.3,0.9,0.7,0.9
		c0.5,0,0.8-0.3,0.9-0.8C276.5,70.3,276.1,69.8,275.6,69.8z M190.4,70.7c0-0.5-0.3-0.9-0.8-0.9s-0.8,0.4-0.8,0.8
		c0,0.6,0.3,1,0.8,0.9C190.1,71.6,190.4,71.2,190.4,70.7z M380,70.6c0-0.1-0.1-0.4-0.2-0.5c-0.2-0.2-0.5-0.3-0.8-0.2
		c-0.4,0.1-0.5,0.4-0.5,0.9c0,0.5,0.3,0.9,0.8,0.9C379.7,71.6,380,71.2,380,70.6z"/>
	<path class="st1" d="M160.7,40.4c-2-8.8-6.9-15.4-14.8-19.7c-3.5-1.9-7.3-3-11.3-3.3c-2.5-0.2-5-0.1-7.5,0.3
		c-4.3,0.7-8.2,2.4-11.8,4.9c-2.4,1.7-4.6,3.6-6.9,5.5c-0.2,0.1-0.3,0.3-0.4,0.4c-1.1,1.3-6.1,5.9-6.2,6c-2.1,2.1-4.1,4.1-6.2,6.2
		c-1.5,1.5-3,2.9-4.5,4.4c-3.8,3.7-7.4,7.5-11.3,11.2c-1.8,1.6-3.4,3.5-5.2,5.1c-0.9,0.8-1.7,1.6-2.5,2.4c-1,1-2,2-3.1,2.9
		c-1.7,1.5-3.5,2.8-5.4,4.1c-4.8,3.3-10.1,5.1-15.8,5.5c-2.9,0.2-5.7,0.1-8.5-0.5c-6.6-1.2-12.3-4.2-17-8.9c-6-6-9.1-13.3-9.6-21.8
		c-0.2-2.9,0.1-5.7,0.8-8.5c1.8-7.7,5.9-14,12.2-18.8c4.8-3.6,10.3-5.8,16.3-6.3c3.2-0.3,6.3-0.1,9.5,0.5c4.6,0.9,8.9,2.7,12.7,5.5
		c2.9,2.1,5.5,4.5,7.9,7.1c0.2,0.2,0.3,0.3,0.4,0.5c-0.3,0.6-1,0.8-1.3,1.4c0.1,0.1,0.1,0.1,0.2,0.1c4.6,1.4,9.1,2.8,13.7,4.1
		c0.1,0,0.2,0,0.3,0c0-0.2,0-0.3,0-0.5c-0.3-1.9-0.6-3.8-0.8-5.6c-0.4-2.7-0.8-5.5-1.2-8.2c0-0.1-0.1-0.2-0.2-0.4
		c-1.1,1-2,1.9-3.1,2.8c-0.4-0.3-0.7-0.6-1-0.9c-0.7-0.9-1.5-1.6-2.3-2.3c-0.8-0.8-1.6-1.5-2.4-2.3c-2.5-2.3-5.3-4.3-8.3-6
		c-5.1-2.8-10.5-4.5-16.2-5.1c-2.4-0.2-4.8-0.3-7.3-0.1c-3.3,0.2-6.5,0.8-9.7,1.8c-6,1.8-11.3,4.9-15.9,9.1
		C8.5,20.5,4,30.1,3.2,41.4c-0.3,4.4,0.1,8.8,1.2,13.1c2.3,8.4,6.6,15.6,13.2,21.3c7.8,6.8,17,10,27.3,10.1c3,0,5.9-0.3,8.9-0.9
		c6.9-1.4,12.9-4.5,18.4-8.8c1.8-1.4,3.5-2.9,5.2-4.4c1.4-1.3,2.8-2.6,4.2-3.9c0.8-0.8,1.6-1.6,2.4-2.4c1-1,2-1.9,3-2.9
		c2.6-2.6,5.2-5.3,7.9-7.9c0.8-0.8,1.7-1.7,2.6-2.5c0.5,0.5,0.9,1,1.3,1.6c1.3,1.6,2.8,3.2,4.3,4.7c1.3,1.2,2.5,2.6,3.7,4
		c0.1,0.1,0.2,0.3,0.3,0.4c0.3,0.2,0.5,0.4,0.8,0.6c1.8,1.8,3.6,3.5,5.6,5.1c4.8,4,10.4,6.3,16.6,6.8c2.8,0.2,5.6,0,8.4-0.6
		c11.5-2.5,21.5-12.3,22.7-25.6C161.5,46.2,161.4,43.3,160.7,40.4z M147.4,48.9c1.1,1.4,2,2.9,2.6,4.5c1.5,4.1,0.8,7.7-2,11
		c-1.8,2.1-4.2,3.5-6.9,4.2c-3.8,1.1-7.6,1-11.3-0.3c-2.4-0.8-4.6-2-6.7-3.4c-2.4-1.6-4.6-3.4-6.6-5.3c-4-3.9-7.6-8.2-10.7-12.9
		c-0.3-0.5-0.6-1-0.9-1.5c0.6-0.7,1.2-1.4,1.8-2c3.5-3.7,7.3-7.1,11.4-10c3.3-2.3,6.9-4.3,10.7-5.7c2.5-0.9,5-1.4,7.6-1.4
		c3.7,0,7,1,10,3.1c1.5,1.1,2.7,2.3,3.6,3.9c1.7,3,1.8,6.2,0.5,9.4c-0.6,1.5-1.5,2.9-2.5,4.2c-0.3,0.4-0.7,0.8-1.1,1.3
		C147.1,48.5,147.2,48.7,147.4,48.9z"/>
	<path class="st1" d="M173.7,37.3c-2.2-9.4-7.1-17.2-14.5-23.4c-7.4-6.1-16.1-9.1-25.6-9.5c-2.5-0.1-5,0.1-7.5,0.5
		c-4.3,0.7-8.4,1.9-12.3,3.9c-3.3,1.6-6.3,3.7-9.2,6c-3.7,2.9-7.2,6.2-10.6,9.5c-4,3.9-7.9,7.8-11.9,11.7c-0.6,0.6-1.2,1.2-1.9,1.8
		c0,0-0.1,0-0.3,0.1c-0.1-0.2-0.3-0.4-0.5-0.6c-1.7-1.8-3.4-3.7-5-5.5c-2.9-3.2-5.9-6.2-9-9.1c-1.2-1.1-2.4-2.1-3.7-3
		c-4.9-3.3-10.2-5-16-5c-1.9,0-3.7,0.2-5.6,0.5c-6.1,1.2-11.5,4-15.8,8.5c-4.6,4.8-7.2,10.6-7.9,17.2c-0.3,2.7-0.2,5.5,0.3,8.2
		c0.6,3.6,1.9,6.9,3.8,10C25,66.3,33,71.9,42.3,72.8c2.4,0.2,4.8,0.2,7.2-0.1c4-0.6,7.8-1.9,11.2-4c1.5-1,3-2,4.4-3.1
		c3.1-2.3,5.9-5,8.7-7.7c2.5-2.5,5-5,7.5-7.5c1.4-1.4,2.8-2.8,4.3-4.2c0.4-0.4,0.8-0.8,1.2-1.2c1.2-1.1,2.4-2.2,3.5-3.4
		c2.7-2.7,5.5-5.4,8.2-8.1c2.2-2.2,4.5-4.5,6.8-6.6c2.9-2.6,5.9-5.2,9.2-7.4c5-3.5,10.6-5.2,16.8-5.5c3.1-0.2,6.2,0.1,9.2,0.9
		c6.4,1.6,11.9,4.7,16.3,9.5c4.8,5.2,7.5,11.2,8.3,18.2c0.4,3.5,0.3,6.9-0.5,10.4c-1.8,8.3-6.2,15-13.1,19.9
		c-5.4,3.8-11.4,5.8-18,5.9c-2.5,0.1-4.9-0.2-7.3-0.7c-4.8-1-9.1-2.9-13-5.9c-2.8-2.2-5.3-4.6-7.8-7.1c-0.1-0.1-0.1-0.2-0.1-0.2
		c0.6-0.7,1.3-1.3,1.9-2c-0.1-0.1-0.2-0.3-0.3-0.4c-0.4-0.1-0.8-0.1-1.2-0.3c-4.1-0.9-8.1-1.8-12.2-2.8c-0.2,0-0.4-0.2-0.6,0
		c0,0.1,0,0.2,0,0.3c1,4.6,2.1,9.2,3.1,13.8c0,0.1,0.1,0.1,0.2,0.3c0.5-0.3,0.7-0.7,1.1-1c0.4-0.3,0.7-0.8,1.2-1.1
		c0.4,0.4,0.8,0.8,1.2,1.2c2.2,2.2,4.5,4.3,6.9,6.3c6.4,5.1,13.7,8,21.8,8.9c2.5,0.3,5,0.3,7.5,0.1c2.5-0.2,4.9-0.6,7.3-1.2
		c7.3-1.8,13.6-5.3,19-10.5c5.4-5.2,9.2-11.4,11.2-18.6c0.8-2.9,1.4-5.9,1.5-8.9C175,45.1,174.6,41.2,173.7,37.3z M73,42.6
		c-0.8,1.5-1.8,2.9-2.9,4.3c-3.4,4.5-7.3,8.7-11.6,12.3c-2.3,1.9-4.8,3.6-7.6,4.9L45.1,66c-4.8,0.7-9.2-0.2-13.2-3.2
		c-1.9-1.4-3.3-3.3-4-5.6c-0.8-2.6-0.5-5.1,0.5-7.6c0.6-1.4,1.3-2.7,2.3-3.9c0.2-0.2,0.4-0.5,0.6-0.8c-0.4-0.5-0.8-0.9-1.2-1.4
		c-1.4-1.7-2.4-3.6-3-5.7c-0.8-3.1-0.2-6,1.5-8.6c0.7-1,1.4-1.8,2.3-2.5c2.6-2.1,5.6-3.3,9-3.7c3.4-0.4,6.7,0.3,9.9,1.4
		c3,1.1,5.7,2.5,8.4,4.2c3.7,2.4,7.1,5.2,10.3,8.2c1.5,1.4,2.9,2.9,4.3,4.4c0.2,0.2,0.3,0.3,0.4,0.5C73.4,42.2,73.2,42.4,73,42.6z"
		/>
	<path class="st1" d="M411.6,20.6c-0.2-1.1-0.2-3.7,0-4.6c0.3,0,0.6,0,0.9,0c8.7,0,17.3,0,26,0c3.3,0,6,2,6.9,5
		c0.2,0.8,0.3,1.6,0.3,2.4c0,6.2,0,12.3,0,18.5c0,2.1,0,4.2,0,6.4c0,0.4,0,0.7,0,1.1c-0.3,0-0.5,0.1-0.7,0.1c-8.9,0-17.7,0-26.5,0
		c-3.5,0-6.1-2.7-6.6-5.2c-0.1-0.5-0.2-1.1-0.2-1.7c0-3.9,0-7.8,0-11.7c0-0.1,0-0.3,0.1-0.5c0.2,0,0.4-0.1,0.6-0.1
		c0.3,0,0.6,0,0.9,0c8.7,0,17.5,0,26.2,0c0.5,0,0.9,0,1.4,0c0.1-0.2,0.1-0.5,0.1-0.7c0-2.2,0-4.4,0-6.6c0-1.5-0.9-2.3-2.4-2.4
		c-0.3,0-0.6,0-0.9,0c-8.3,0-16.5,0-24.8,0C412.4,20.6,412,20.6,411.6,20.6z M440.8,44.7c0-1.2,0-2.2,0-3.2c0-1.1,0-2.2,0-3.2
		c0-1,0.1-2.1-0.1-3.1c-0.2,0-0.3,0-0.5,0c-7.9,0-15.8,0-23.7,0c0,0-0.1,0-0.1,0c0,0-0.1,0-0.1,0.1c0,0.2,0,0.4,0,0.6
		c0,2.1,0,4.2,0,6.2c0,0.2,0,0.4,0,0.5c0.1,1.1,0.9,1.9,2,2c0.3,0,0.6,0,0.9,0c6.8,0,13.6,0,20.4,0
		C439.9,44.7,440.3,44.7,440.8,44.7z"/>
	<path class="st1" d="M382.3,44.7c0,1.6,0,3.1,0,4.6c-0.4,0.2-0.8,0.1-1.1,0.1c-3.5,0-7,0-10.5,0c-5,0-10.1,0-15.2,0
		c-0.6,0-1.2,0-1.8-0.1c-3.1-0.6-5.5-3.5-5.6-6.7c0-2,0-4,0-6c0-4.5,0-8.9,0-13.4c0-0.8,0.1-1.6,0.3-2.3c0.8-2.8,3.5-4.9,6.4-5
		c0.2,0,0.5,0,0.7,0c6.5,0,12.9,0,19.4,0c0.8,0,1.6,0.1,2.3,0.3c2.6,0.7,5,3.2,5,6.4c0,4,0,8,0,11.9c0,0.2,0,0.3,0,0.4
		c-0.3,0.2-0.7,0.2-1,0.2c-3.2,0-6.3,0-9.5,0c-5.8,0-11.7,0-17.5,0c-0.4,0-0.8,0-1.3,0c0,0.3-0.1,0.5-0.1,0.7c0,2.1,0,4.2,0,6.3
		c0,0.3,0,0.7,0.1,1c0.2,0.9,1,1.5,1.9,1.6c0.4,0,0.8,0,1.1,0c8.3,0,16.6,0,24.9,0C381.4,44.7,381.8,44.7,382.3,44.7z M377.5,30.2
		c0-0.2,0-0.4,0-0.6c0-2.1,0-4.2,0-6.4c0-0.1,0-0.3,0-0.5c-0.1-1.2-1-2-2.2-2.2c-0.2,0-0.5,0-0.8,0c-6.2,0-12.5,0-18.7,0
		c-0.3,0-0.6,0-0.9,0c-0.8,0.1-1.5,0.5-1.8,1.3c-0.2,0.4-0.2,0.9-0.2,1.3c0,2.1,0,4.2,0,6.4c0,0.2,0,0.4,0.1,0.6
		c0.2,0.1,0.3,0.1,0.4,0.1c7.9,0,15.8,0,23.7,0C377.2,30.3,377.3,30.2,377.5,30.2z"/>
	<path class="st1" d="M244.2,49.4c-3.3,0-6.7,0-10,0c-2.3,0-4.1-1-5.6-2.8c-0.9-1.1-1.3-2.4-1.4-3.8c0-0.2,0-0.5,0-0.8
		c0-6.2,0-12.5,0-18.7c0-0.6,0-1.2,0.1-1.8c0.6-3,3.4-5.6,6.7-5.6c4.9,0,9.9,0,14.8,0c1.9,0,3.7,0,5.6,0c1.9,0,3.5,0.7,4.8,2
		c1.4,1.3,2.1,3,2.1,4.9c0,1.5,0,3,0,4.5c0,5,0,9.9,0,14.8c0,0.9-0.1,1.7-0.4,2.5c-0.7,2.2-3.1,4.8-6.5,4.8
		C251.8,49.4,249.2,49.4,244.2,49.4L244.2,49.4z M244.3,44.7c3.1,0,6.2,0,9.4,0c0.3,0,0.6,0,0.9,0c0.9,0,2-0.9,2-2c0-0.3,0-0.7,0-1
		c0-6,0-12,0-18c0-0.3,0-0.6,0-0.9c0-1-0.8-1.9-1.8-2.1c-0.4-0.1-0.8-0.1-1.1-0.1c-6.2,0-12.5,0-18.7,0c-0.2,0-0.4,0-0.7,0
		c-1.3,0.1-2.2,1-2.3,2.3c0,0.2,0,0.4,0,0.5c0,6.1,0,12.3,0,18.4c0,0.2,0,0.5,0,0.8c0.1,1.1,1,1.9,2.1,2c0.3,0,0.6,0,0.9,0
		C238,44.7,241.1,44.7,244.3,44.7z"/>
	<path class="st1" d="M192.2,49.3c-0.9,0.2-3.7,0.2-4.6,0c0-0.1-0.1-0.2-0.1-0.3c0-10.9,0-21.8,0-32.7c0-0.1,0.1-0.2,0.1-0.4
		c0.3,0,0.6-0.1,0.9-0.1c8.7,0,17.4,0,26.1,0c3.3,0,6.1,2.1,6.8,5.2c0.2,0.8,0.2,1.6,0.2,2.4c0,4.6,0,9.2,0,13.7c0,3.6,0,7.2,0,10.8
		c0,0.4,0,0.8,0,1.2c-0.8,0.2-3.4,0.2-4.6,0.1c-0.2-0.4-0.1-0.8-0.1-1.2c0-4.2,0-8.4,0-12.6c0-3.9,0-7.9,0-11.8c0-0.3,0-0.6,0-0.9
		c-0.1-1.1-0.8-1.9-1.8-2.1c-0.3-0.1-0.6-0.1-0.9-0.1c-6.4,0-12.8,0-19.2,0c-0.4,0-0.8,0-1.1,0.1c-0.9,0.3-1.6,1-1.6,2
		c0,0.4,0,0.8,0,1.1c0,8.1,0,16.1,0,24.2C192.4,48.5,192.5,48.9,192.2,49.3z"/>
	<path class="st1" d="M269.9,15.9c0,0.6,0,1,0,1.4c0,8.1,0,16.1,0,24.2c0,0.3,0,0.7,0,1c0.1,1.3,1,2.2,2.3,2.2c6.7,0,13.3,0,20,0
		c1.4,0,2.3-1,2.4-2.4c0-0.3,0-0.7,0-1c0-8,0-16,0-24c0-0.4,0-0.8,0-1.2c0.8-0.2,1.6-0.1,2.4-0.1c0.7,0,1.5,0,2.2,0
		c0.3,0.4,0.2,0.7,0.2,1c0,3.2,0,6.5,0,9.7c0,5.1,0,10.3,0,15.4c0,0.6,0,1.3-0.1,1.9c-0.5,2.9-3.4,5.5-6.7,5.5c-4.2,0-8.4,0-12.6,0
		c-2.6,0-5.1,0-7.7,0c-2,0-3.7-0.7-5.1-2.2c-1.2-1.3-1.9-2.8-1.9-4.6c0-0.2,0-0.5,0-0.8c0-8.2,0-16.4,0-24.7c0-0.4,0-0.7,0-1.1
		c0.8-0.2,1.6-0.1,2.4-0.1C268.3,15.9,269,15.9,269.9,15.9z"/>
	<path class="st1" d="M324.4,44.7c1.8-3.3,3.5-6.5,5.3-9.6c1.7-3.2,3.4-6.3,5.2-9.5c1.7-3.2,3.5-6.4,5.2-9.6c0.9-0.1,4-0.2,5.4-0.1
		c0.1,0.3-0.1,0.6-0.2,0.8c-1.4,2.5-2.8,5.1-4.2,7.6c-4.4,8-8.9,16-13.3,24c-0.2,0.3-0.4,0.6-0.6,1c-1.8,0-3.6,0-5.5,0
		c-1.2-2.2-2.4-4.4-3.6-6.6c-1.2-2.2-2.5-4.5-3.7-6.7c-1.2-2.2-2.4-4.4-3.7-6.6c-1.2-2.2-2.5-4.5-3.7-6.7c-1.2-2.2-2.4-4.4-3.6-6.6
		c0.3-0.1,0.4-0.1,0.5-0.1c1.6,0,3.3,0,5,0c0.2,0.3,0.4,0.7,0.6,1c3.9,7.2,7.8,14.4,11.7,21.5c1,1.8,2,3.6,2.9,5.4
		C324,44.1,324.2,44.4,324.4,44.7z"/>
	<path class="st1" d="M392.8,20.6c0,0.5,0,0.9,0,1.2c0,6.6,0,13.2,0,19.9c0,0.3,0,0.6,0,0.9c0.1,1.1,0.9,1.9,2,2c0.3,0,0.6,0,0.9,0
		c3.5,0,6.9,0,10.4,0c0.4,0,0.7,0,1.1,0c0.2,0.9,0.2,3.6,0,4.6c-0.2,0-0.4,0.1-0.6,0.1c-3.9,0-7.8,0-11.7,0c-3.4,0-6-2.6-6.6-5.2
		c-0.1-0.4-0.1-0.8-0.2-1.2c0-0.5,0-1,0-1.5c0-11.7,0-23.5,0-35.2c0-0.4,0-0.8,0-1.2c0.8-0.3,1.6-0.1,2.3-0.1c0.8,0,1.5,0,2.2,0
		c0.3,0.3,0.2,0.6,0.2,0.9c0,2.9,0,5.9,0,8.8c0,0.4,0,0.7,0,1.1c0.4,0.3,0.8,0.2,1.1,0.2c4,0,8,0,12,0c0.4,0,0.8,0,1.3,0
		c0.1,1.5,0,3,0,4.5c-0.3,0.4-0.8,0.2-1.1,0.2c-4,0-8,0-12,0C393.8,20.6,393.4,20.6,392.8,20.6z"/>
	<path class="st1" d="M341,82c-0.5,0-0.9,0-1.2,0c0-0.2-0.1-0.2-0.1-0.3c0-2.7,0-5.3,0-8c0-0.2,0-0.3,0.1-0.5c0.3,0,0.6,0,0.9,0
		c0.1,0.3,0.2,0.6,0.4,1c0.1,0,0.2,0,0.3-0.1c0.4-0.4,0.9-0.8,1.5-0.9c1.5-0.3,2.7-0.1,3.6,1.3c0.1-0.2,0.3-0.3,0.4-0.4
		c1.1-1.1,2.4-1.2,3.8-0.8c0.9,0.2,1.4,0.9,1.6,1.7c0.1,0.3,0.1,0.7,0.1,1c0,1.9,0,3.8,0,5.7c0,0.1,0,0.2-0.1,0.4
		c-0.4,0.1-0.8,0.1-1.2,0c0-0.3-0.1-0.7-0.1-1c0-1.5,0-3,0-4.6c0-0.4,0-0.8-0.2-1.2c-0.2-0.6-0.7-1-1.3-1c-0.3,0-0.6,0-0.9,0
		c-0.8,0.1-1.4,0.5-1.6,1.3c-0.1,0.5-0.2,1-0.2,1.5c0,1.3,0,2.7,0,4c0,0.3,0,0.6,0,0.9c-0.2,0-0.5,0.1-0.7,0.1c-0.2,0-0.4,0-0.6,0
		c0-0.3-0.1-0.5-0.1-0.8c0-1.5,0-3,0-4.6c0-0.4,0-0.9-0.1-1.3c-0.2-0.7-0.6-1.1-1.3-1.1c-0.3,0-0.6,0-0.9,0
		c-0.8,0.1-1.4,0.5-1.6,1.3c-0.2,0.6-0.2,1.2-0.3,1.9c0,1.2,0,2.4,0,3.6C341,81.2,341,81.5,341,82z"/>
	<path class="st1" d="M367.6,81.9c-0.1-1-0.1-11.6,0-12.6c0.1,0,0.3-0.1,0.5-0.1c0.2,0,0.4,0,0.6,0c0,0.2,0.1,0.4,0.1,0.6
		c0,1.1,0,2.2,0,3.2c0,0.2,0,0.4,0,0.6c0.3,0.1,0.5-0.1,0.6-0.2c1.1-0.7,2.2-0.7,3.4-0.4c0.8,0.2,1.3,0.7,1.7,1.4
		c0.2,0.4,0.4,0.8,0.5,1.2c0.3,1.2,0.3,2.4,0,3.6c-0.7,2.8-3.6,3.7-5.9,2c-0.1-0.1-0.2-0.2-0.3-0.3c-0.4,0.1-0.2,0.6-0.6,0.9
		C368.1,81.9,367.8,81.9,367.6,81.9z M368.8,77.3c0,0.7,0,1.1,0.1,1.5c0,0.2,0.1,0.4,0.2,0.6c0.3,1.1,1.1,1.6,2.2,1.6
		c1.1,0,1.9-0.4,2.2-1.5c0.3-0.8,0.5-1.7,0.3-2.6c-0.1-0.6-0.2-1.1-0.4-1.6c-0.3-0.8-0.9-1.2-1.7-1.2c-0.2,0-0.5,0-0.8,0
		c-1,0.1-1.7,0.6-1.9,1.6C368.9,76.3,368.9,76.9,368.8,77.3z"/>
	<path class="st1" d="M307.9,77.8c-2,0.1-4,0-5.9,0.1c-0.1,1.7,0.7,2.8,2.3,3c0.8,0.1,1.5,0,2.3-0.2c0.3-0.1,0.6-0.2,0.9-0.2
		c0.2,0.4,0.2,0.8,0,1.2c-1.2,0.6-2.6,0.7-3.9,0.4c-1.5-0.3-2.4-1.2-2.9-2.6c-0.4-1.4-0.4-2.7,0.1-4.1c0.8-2.2,2.8-2.9,4.7-2.3
		c1.2,0.3,1.9,1.2,2.2,2.3C307.9,76.1,308,76.9,307.9,77.8z M306.3,76.6c0-1.6-0.7-2.5-2.1-2.5c-1.5,0-2.4,0.9-2.3,2.5
		C302.8,76.7,305.1,76.7,306.3,76.6z"/>
	<path class="st1" d="M396.6,77.8c-1,0.2-2,0.1-3,0.1c-1,0-1.9,0-2.9,0c-0.2,1.5,0.5,2.7,1.9,3c0.9,0.2,1.8,0.1,2.6-0.1
		c0.3-0.1,0.6-0.2,0.9-0.2c0.2,0.4,0.2,0.7,0.1,1.2c-1.5,0.7-3,0.8-4.5,0.3c-1.1-0.4-1.9-1.2-2.2-2.3c-0.5-1.4-0.5-2.9,0.1-4.3
		c0.8-2.1,2.8-2.8,4.7-2.2c0.9,0.3,1.6,0.9,2,1.8C396.7,75.8,396.8,76.7,396.6,77.8z M390.7,76.6c1.1,0.2,3.5,0.2,4.4,0
		c0.1-0.7-0.1-1.2-0.5-1.7c-0.3-0.4-0.8-0.7-1.3-0.7C391.8,74,390.8,74.9,390.7,76.6z"/>
	<path class="st1" d="M260.7,77.8c-1.1,0-2.1,0-3.1,0c-1,0-1.9-0.1-2.9,0.1c-0.1,1.7,0.7,2.8,2.3,3c0.8,0.1,1.5,0,2.3-0.2
		c0.3-0.1,0.6-0.2,0.8-0.2c0.2,0.5,0.2,0.5,0.1,1.1c-1.5,0.7-3,0.8-4.6,0.2c-1.2-0.4-2-1.4-2.3-2.7c-0.3-1.2-0.3-2.5,0.1-3.7
		c0.8-2.1,2.7-3,4.8-2.3c1.2,0.4,1.9,1.3,2.2,2.5c0.1,0.4,0.1,0.7,0.1,1.1C260.7,77,260.7,77.4,260.7,77.8z M259.2,76.6
		c0.1-1.7-0.7-2.5-2.1-2.5c-1.5,0-2.4,1-2.4,2.6C255.6,76.8,258.2,76.8,259.2,76.6z"/>
	<path class="st1" d="M201.8,81.9c-0.1,0-0.3,0.1-0.4,0.1c-0.2,0-0.5,0-0.8,0c0-0.4-0.1-0.7-0.1-1c0-1.4,0-2.8,0-4.2
		c0-0.4,0-0.8-0.1-1.2c-0.1-0.8-0.6-1.2-1.4-1.3c-0.2,0-0.4,0-0.6,0c-1.6,0-2.3,0.7-2.6,2.2c-0.1,0.4-0.1,0.9-0.1,1.3
		c0,1.1,0,2.2,0,3.2c0,0.3,0,0.7,0,1c-0.4,0.2-0.8,0.1-1.2,0.1c-0.2-0.7-0.1-1.5-0.1-2.2c0-0.8,0-1.5,0-2.2c0-0.7,0-1.4,0-2.1
		c0-0.7,0-1.5,0-2.2c0.2,0,0.3-0.1,0.4-0.1c0.2,0,0.4,0,0.6,0c0.1,0.1,0.2,0.2,0.2,0.3c0.1,0.2,0.1,0.5,0.2,0.8
		c0.2-0.2,0.3-0.3,0.5-0.4c1.2-1,2.6-1,4-0.6c0.8,0.3,1.2,0.8,1.4,1.6c0.1,0.4,0.2,0.8,0.2,1.2c0,1.8,0,3.7,0,5.6
		C201.9,81.7,201.8,81.8,201.8,81.9z"/>
	<path class="st1" d="M224.4,77.6c-0.1,0.7-0.2,1.3-0.4,1.9c-0.5,1.6-1.8,2.6-3.5,2.7c-2.4,0.2-4-1.4-4.3-3.6
		c-0.1-0.8-0.1-1.6,0-2.4c0.4-2.1,1.9-3.4,4.3-3.3c2,0.1,3.4,1.5,3.7,3.5C224.3,76.8,224.3,77.2,224.4,77.6
		C224.3,77.6,224.3,77.6,224.4,77.6z M223,77.5c-0.1-0.8-0.2-1.4-0.4-2c-0.5-1-1.2-1.5-2.5-1.5c-1.2,0-1.9,0.5-2.3,1.6
		c-0.4,1.2-0.4,2.4,0,3.6c0.4,1.1,1.2,1.7,2.4,1.7c1.2,0,2.1-0.6,2.4-1.8C222.8,78.7,222.9,78.1,223,77.5z"/>
	<path class="st1" d="M237.5,73.6c1.4-0.7,2.8-0.9,4.4-0.5c0.8,0.2,1.3,0.8,1.5,1.6c0.1,0.3,0.1,0.7,0.1,1c0,1.9,0,3.8,0,5.7
		c0,0.2,0,0.3-0.1,0.5c-0.3,0-0.6,0-0.9,0.1c-0.1-0.3-0.2-0.6-0.3-0.9c-0.1,0-0.2,0-0.3,0c-0.4,0.3-0.8,0.6-1.2,0.8
		c-0.9,0.4-1.8,0.4-2.7,0.1c-1-0.3-1.6-1-1.7-2.1c-0.1-1.2,0.3-2.1,1.3-2.6c0.6-0.3,1.2-0.5,1.9-0.5c0.6,0,1.2,0,1.8,0
		c0.2,0,0.4,0,0.7,0c0-0.3,0.1-0.5,0.1-0.8c-0.1-1.4-0.7-1.9-2.1-1.9c-0.4,0-0.9,0.2-1.3,0.2c-0.3,0.1-0.6,0.2-0.9,0.3
		C237.5,74.4,237.4,74.1,237.5,73.6z M242,77.8c-1-0.1-2-0.2-3,0.2c-0.3,0.1-0.6,0.2-0.8,0.4c-0.8,0.6-0.7,2.2,0.3,2.6
		c1.3,0.6,3-0.2,3.4-1.6C242.1,78.8,242.1,78.3,242,77.8z"/>
	<path class="st1" d="M355.8,77.4c0.1-0.4,0.1-1,0.2-1.6c0.5-2,2.1-3.1,4.3-2.9c1.9,0.2,3.2,1.4,3.6,3.3c0.2,0.9,0.2,1.8,0,2.8
		c-0.4,1.8-1.7,3.1-3.5,3.2c-2.1,0.2-3.6-0.8-4.3-2.6c-0.1-0.2-0.2-0.5-0.2-0.8C355.9,78.4,355.9,78,355.8,77.4z M362.6,77.6
		c0-0.4,0-0.8-0.1-1.2c-0.3-1.6-1.2-2.4-2.9-2.2c-1,0.1-1.7,0.6-2,1.5c-0.5,1.3-0.5,2.6,0,3.9c0.4,1,1.2,1.6,2.3,1.6
		c1.1,0,1.9-0.5,2.4-1.5C362.5,78.9,362.6,78.3,362.6,77.6z"/>
	<path class="st1" d="M281.8,82c-0.5,0-0.9,0-1.2-0.1c0-0.2-0.1-0.4-0.1-0.6c0-2.7,0-5.4,0-8.1c0.4-0.2,0.7-0.2,1-0.1
		c0.1,0.3,0.2,0.6,0.3,1c0.2-0.1,0.3-0.2,0.5-0.4c1.2-1,2.6-1.1,4.1-0.5c0.8,0.3,1.2,0.9,1.4,1.7c0.1,0.4,0.1,0.7,0.1,1.1
		c0,1.8,0,3.6,0,5.3c0,0.2,0,0.3-0.1,0.4c-0.4,0.2-0.8,0.1-1.3,0c0-0.3,0-0.7,0-1c0-1.5,0-3,0-4.5c0-0.3,0-0.7-0.1-1
		c-0.1-0.8-0.7-1.2-1.5-1.3c-0.3,0-0.7,0-1,0c-1.1,0.1-1.8,0.7-2,1.7c-0.1,0.5-0.2,1-0.2,1.6c0,1.2,0,2.4,0,3.6
		C281.8,81.3,281.8,81.6,281.8,82z"/>
	<path class="st1" d="M205.6,73.1c0.3,0,0.6,0,0.9,0c0.1,0.3,0.2,0.6,0.4,1c0.1,0,0.2,0,0.3-0.1c1.1-1.1,2.3-1.2,3.7-0.9
		c1.1,0.2,1.8,0.9,2,2c0.1,0.4,0.1,0.7,0.1,1.1c0,1.8,0,3.6,0,5.3c0,0.1,0,0.2-0.1,0.4c-0.4,0.2-0.8,0.1-1.2,0.1
		c0-0.3-0.1-0.5-0.1-0.8c0-1.5,0-3,0-4.6c0-0.3,0-0.7,0-1c-0.1-0.9-0.7-1.4-1.5-1.5c-0.2,0-0.5,0-0.8,0c-1.2,0.1-1.9,0.6-2.2,1.8
		c-0.1,0.5-0.1,1-0.2,1.6c0,1.1,0,2.2,0,3.3c0,0.3,0,0.7,0,1c-0.6,0.2-0.6,0.2-1.3,0.1c-0.2-0.7-0.1-1.4-0.1-2.2c0-0.8,0-1.5,0-2.2
		c0-0.7,0-1.4,0-2.1C205.5,74.6,205.5,73.9,205.6,73.1z"/>
	<path class="st1" d="M318.4,82c-0.5,0-0.8,0-1.2,0c0-0.3-0.1-0.5-0.1-0.8c0-1.6,0-3.2,0-4.8c0-0.4-0.1-0.8-0.2-1.2
		c-0.2-0.6-0.6-0.9-1.2-1c-0.5-0.1-1-0.1-1.5,0c-0.8,0.1-1.3,0.6-1.5,1.3c-0.1,0.5-0.2,1.1-0.2,1.6c0,1.2,0,2.4,0,3.7
		c0,0.3,0,0.7,0,1c-0.4,0.2-0.8,0.1-1.2,0.1c0-0.1-0.1-0.2-0.1-0.3c0-2.7,0-5.4,0-8.1c0-0.1,0.1-0.2,0.1-0.4c0.3,0,0.6,0,0.9,0
		c0.1,0.3,0.2,0.6,0.4,1c0.2-0.2,0.4-0.3,0.6-0.4c1.2-0.9,2.5-0.9,3.9-0.4c0.8,0.3,1.2,0.8,1.4,1.6c0.1,0.4,0.1,0.8,0.1,1.2
		c0,1.8,0,3.6,0,5.3C318.4,81.5,318.4,81.7,318.4,82z"/>
	<path class="st1" d="M231.2,82c-0.5,0-1,0-1.5,0c-0.5-0.9-0.8-1.9-1.2-2.9c-0.4-1-0.8-2-1.1-3c-0.3-1-0.8-1.9-1-3
		c0.5,0,0.9,0,1.3,0c0.6,1.2,0.9,2.4,1.4,3.6s0.9,2.4,1.3,3.8c0.5-0.8,0.7-1.7,1-2.4c0.3-0.8,0.6-1.7,0.9-2.5
		c0.3-0.8,0.6-1.6,0.9-2.4c0.5,0,0.9,0,1.3,0c0,0.2,0,0.4-0.1,0.6c-1,2.7-2,5.3-3,8C231.4,81.8,231.3,81.8,231.2,82z"/>
	<path class="st1" d="M290.3,73.1c0.2,0,0.3-0.1,0.5-0.1c0.2,0,0.5,0,0.9,0c0.9,2.4,1.7,4.7,2.6,7.1c0.3,0.1,0.3-0.1,0.4-0.3
		c0.7-1.8,1.3-3.7,2-5.6c0.1-0.4,0.3-0.8,0.5-1.2c0.5,0,0.9,0,1.3,0c0,0.2,0,0.3,0,0.4c-1,2.7-2.1,5.4-3.1,8.1
		c0,0.1-0.1,0.1-0.1,0.2c-0.5,0.2-1,0-1.5,0.1c-0.5-0.7-0.6-1.5-0.9-2.2c-0.3-0.8-0.6-1.5-0.9-2.3c-0.3-0.7-0.6-1.4-0.8-2.2
		C290.8,74.6,290.3,74,290.3,73.1z"/>
	<path class="st1" d="M322.1,74.2c-0.4,0-0.8-0.1-1.1-0.1c-0.2-0.3-0.1-0.6,0.1-0.7c0.3-0.2,0.6-0.3,1-0.5c0.2-0.5,0.4-1.1,0.6-1.8
		c0.1,0,0.2-0.1,0.4-0.1c0.1,0,0.2,0,0.4,0.1c0,0.3,0,0.6,0.1,0.9s0,0.6,0,0.9c0.2,0,0.5,0.1,0.7,0.1c0.6,0,1.2,0,1.7,0
		c0.3,0.4,0.2,0.7,0.1,1.1c-0.8,0-1.5,0-2.4,0.1c0,0.2-0.1,0.4-0.1,0.6c0,1.5,0,3,0,4.5c0,0.2,0,0.4,0,0.6c0.1,0.8,0.7,1.2,1.5,1.2
		c0.3,0,0.7,0,1.1-0.1c0,0.3,0,0.6,0.1,0.8c-0.5,0.4-1.1,0.3-1.6,0.4c-0.5,0-1-0.1-1.4-0.4c-0.6-0.4-0.9-1-1-1.7c0-0.3,0-0.7,0-1
		c0-1.3,0-2.7,0-4C322.2,74.8,322.1,74.5,322.1,74.2z"/>
	<path class="st1" d="M251.1,82c-0.6,0.3-1.2,0.3-1.9,0.2c-1-0.1-1.6-0.7-1.9-1.7c-0.1-0.4-0.1-0.8-0.1-1.2c0-1.3,0-2.7,0-4
		c0-0.3,0-0.7,0-1c-0.4,0-0.8-0.1-1.1-0.1c-0.2-0.3-0.2-0.6,0.1-0.7c0.3-0.2,0.7-0.3,1-0.5c0.1-0.5,0.3-1,0.5-1.5
		c0.1-0.4,0.2-0.4,0.9-0.3c0,0.6,0,1.2,0.1,1.8c0.2,0,0.4,0.1,0.6,0.1c0.6,0,1.2,0,1.7,0c0.1,0.1,0.2,0.2,0.2,0.2c0,0.2,0,0.5,0,0.8
		c-0.8,0.2-1.6,0-2.4,0.2c0,0.2-0.1,0.4-0.1,0.6c0,1.4,0,2.8,0,4.2c0,0.3,0,0.7,0.1,1c0.2,0.6,0.6,0.9,1.2,1c0.4,0,0.8,0,1.2,0
		C251.3,81.3,251.3,81.7,251.1,82z"/>
	<path class="st1" d="M384.1,69.4c0.4,0,0.8,0,1.2,0c0,0.2,0.1,0.3,0.1,0.5c0,3.9,0,7.8,0,11.7c0,0.1,0,0.2-0.1,0.4
		c-0.4,0.2-0.8,0.1-1.2,0c0-0.2-0.1-0.4-0.1-0.5c0-3.9,0-7.7,0-11.6C384,69.7,384.1,69.6,384.1,69.4z"/>
	<path class="st1" d="M378.6,73.1c0.4,0,0.8,0,1.2,0c0,0.2,0.1,0.3,0.1,0.5c0,2.7,0,5.3,0,8c0,0.1,0,0.2,0,0.2
		c-0.4,0.3-0.8,0.2-1.2,0.1c-0.1-0.1-0.1-0.1-0.1-0.1c0,0,0-0.1,0-0.1c0-2.7,0-5.5,0-8.2C378.5,73.4,378.6,73.3,378.6,73.1z"/>
	<path class="st1" d="M189,73.1c0.4,0,0.8,0,1.2,0c0,0.2,0.1,0.4,0.1,0.6c0,2.6,0,5.3,0,7.9c0,0.1,0,0.2-0.1,0.3
		c-0.4,0.2-0.8,0.2-1.2,0.1C188.8,81,188.8,74.1,189,73.1z"/>
	<path class="st1" d="M275,81.9c-0.1-1.1-0.1-7.8,0-8.8c0.4-0.1,0.8-0.1,1.1,0c0.2,0.9,0.2,7.2,0.1,8.7C275.7,82,275.7,82,275,81.9z
		"/>
	<path class="st1" d="M329.3,82.2c-0.6,0-1-0.4-1-1.1c0-0.7,0.4-1.1,1-1.1c0.6,0,1,0.5,1,1.1C330.3,81.8,330,82.2,329.3,82.2z"/>
	<path class="st1" d="M265.5,81.1c0,0.8-0.4,1.1-1.1,1.1c-0.5,0-0.8-0.3-0.9-0.7c0-0.1,0-0.2,0-0.3c0-0.7,0.4-1.2,1-1.2
		C265.2,80,265.5,80.5,265.5,81.1z"/>
	<path class="st1" d="M275.6,69.8c0.5,0,0.8,0.5,0.8,1c0,0.5-0.5,0.8-0.9,0.8c-0.5,0-0.8-0.4-0.7-0.9
		C274.8,70.1,275.2,69.8,275.6,69.8z"/>
	<path class="st1" d="M190.4,70.7c0,0.5-0.3,0.9-0.8,0.9c-0.5,0-0.8-0.4-0.8-0.9c0-0.5,0.4-0.9,0.8-0.8
		C190,69.8,190.4,70.2,190.4,70.7z"/>
	<path class="st1" d="M380,70.6c0,0.7-0.4,1-0.8,1s-0.8-0.4-0.8-0.9c0-0.4,0.2-0.7,0.5-0.9c0.3-0.1,0.6,0,0.8,0.2
		C379.9,70.2,380,70.5,380,70.6z"/>
	<path class="st0" d="M440.8,44.7c-0.5,0-0.9,0-1.3,0c-6.8,0-13.6,0-20.4,0c-0.3,0-0.6,0-0.9,0c-1.1-0.1-1.9-1-2-2
		c0-0.2,0-0.4,0-0.5c0-2.1,0-4.2,0-6.2c0-0.2,0-0.4,0-0.6c0.1-0.1,0.1-0.1,0.1-0.1c0,0,0.1,0,0.1,0c7.9,0,15.8,0,23.7,0
		c0.1,0,0.3,0,0.5,0c0.2,1,0.1,2.1,0.1,3.1c0,1.1,0,2.2,0,3.2C440.8,42.5,440.8,43.5,440.8,44.7z"/>
	<path class="st0" d="M377.5,30.2c-0.2,0.1-0.3,0.1-0.4,0.1c-7.9,0-15.8,0-23.7,0c-0.1,0-0.2-0.1-0.4-0.1c0-0.2-0.1-0.4-0.1-0.6
		c0-2.1,0-4.2,0-6.4c0-0.4,0.1-0.9,0.2-1.3c0.3-0.8,1-1.2,1.8-1.3c0.3,0,0.6,0,0.9,0c6.2,0,12.5,0,18.7,0c0.2,0,0.5,0,0.8,0
		c1.2,0.1,2,0.9,2.2,2.2c0,0.1,0,0.3,0,0.5c0,2.1,0,4.2,0,6.4C377.6,29.8,377.5,29.9,377.5,30.2z"/>
	<path class="st0" d="M244.3,44.7c-3.1,0-6.2,0-9.4,0c-0.3,0-0.6,0-0.9,0c-1.1-0.1-1.9-0.9-2.1-2c0-0.2,0-0.5,0-0.8
		c0-6.1,0-12.3,0-18.4c0-0.2,0-0.4,0-0.5c0.1-1.3,0.9-2.2,2.3-2.3c0.2,0,0.4,0,0.7,0c6.2,0,12.5,0,18.7,0c0.4,0,0.8,0,1.1,0.1
		c1.1,0.2,1.8,1.1,1.8,2.1c0,0.3,0,0.6,0,0.9c0,6,0,12,0,18c0,0.3,0,0.7,0,1c0,1.1-1.1,2-2,2c-0.3,0-0.6,0-0.9,0
		C250.5,44.7,247.4,44.7,244.3,44.7z"/>
	<path class="st0" d="M368.8,77.3c0.1-0.4,0.1-1,0.3-1.6c0.3-1,0.9-1.5,1.9-1.6c0.2,0,0.5,0,0.8,0c0.8,0.1,1.4,0.5,1.7,1.2
		c0.2,0.5,0.3,1.1,0.4,1.6c0.1,0.9,0,1.8-0.3,2.6c-0.4,1-1.1,1.5-2.2,1.5c-1.2,0-1.9-0.6-2.2-1.6c-0.1-0.2-0.1-0.4-0.2-0.6
		C368.8,78.4,368.8,78,368.8,77.3z"/>
	<path class="st0" d="M306.3,76.6c-1.2,0.2-3.6,0.1-4.4,0c-0.1-1.5,0.9-2.5,2.3-2.5C305.6,74.1,306.4,75,306.3,76.6z"/>
	<path class="st0" d="M390.7,76.6c0.1-1.7,1-2.6,2.6-2.5c0.5,0,1,0.3,1.3,0.7c0.4,0.5,0.6,1.1,0.5,1.7
		C394.3,76.7,391.9,76.7,390.7,76.6z"/>
	<path class="st0" d="M259.2,76.6c-1,0.2-3.6,0.2-4.4,0c-0.1-1.5,0.9-2.6,2.4-2.6C258.5,74.1,259.2,75,259.2,76.6z"/>
	<path class="st0" d="M223,77.5c-0.1,0.6-0.2,1.2-0.3,1.7c-0.3,1.1-1.2,1.8-2.4,1.8c-1.2,0-2.1-0.6-2.4-1.7c-0.4-1.2-0.4-2.4,0-3.6
		c0.4-1.1,1.1-1.6,2.3-1.6c1.3,0,2,0.4,2.5,1.5C222.8,76.1,222.9,76.7,223,77.5z"/>
	<path class="st0" d="M242,77.8c0.1,0.6,0.1,1.1,0,1.6c-0.4,1.4-2.1,2.1-3.4,1.6c-1-0.4-1.1-2-0.3-2.6c0.2-0.2,0.5-0.3,0.8-0.4
		C240,77.6,241,77.7,242,77.8z"/>
	<path class="st0" d="M362.6,77.6c0,0.7-0.1,1.3-0.3,1.9c-0.4,1-1.2,1.5-2.4,1.5c-1.1,0-2-0.5-2.3-1.6c-0.5-1.3-0.5-2.6,0-3.9
		c0.3-0.9,1-1.4,2-1.5c1.6-0.1,2.6,0.6,2.9,2.2C362.6,76.8,362.6,77.2,362.6,77.6z"/>
</g>
</svg>
